<?xml version="1.0" encoding="UTF-8" standalone="no"?>
<!DOCTYPE svg PUBLIC "-//W3C//DTD SVG 1.1//EN" "http://www.w3.org/Graphics/SVG/1.1/DTD/svg11.dtd">
<svg width="100%" height="100%" viewBox="0 0 721 720" version="1.1" xmlns="http://www.w3.org/2000/svg" xmlns:xlink="http://www.w3.org/1999/xlink" xml:space="preserve" xmlns:serif="http://www.serif.com/" style="fill-rule:evenodd;clip-rule:evenodd;stroke-linejoin:round;stroke-miterlimit:2;">
    <g transform="matrix(1,0,0,1,-1283,0)">
        <g id="Base" transform="matrix(1,0,0,1,1283.31,0)">
            <rect x="0" y="0" width="720" height="720" style="fill:none;"/>
            <g transform="matrix(1,0,0,1,8.73409,-3972.82)">
                <path d="M468.543,4478.92L468.713,4478.92L480.952,4519.21L480.889,4519.21L494.717,4564.33L452.115,4564.33L443.597,4536.16L443.711,4536.13L425.053,4474.71L425.022,4474.72L387.383,4350.22L429.104,4350.22L468.543,4478.92ZM332.971,4350.22L331.121,4356.07L292.233,4481.53C292.233,4481.53 220.531,4367.02 220.531,4367.02L136.165,4534.25L3.494,4101.3L46.026,4101.3C46.026,4101.3 146.218,4423.81 146.218,4423.81L219.394,4284.86C219.394,4284.86 278.566,4384.09 278.566,4384.09L290.321,4350.22L332.971,4350.22ZM410.7,4479.07L422.895,4519.21L392.418,4519.21L380.455,4478.93L411.172,4478.93L410.7,4479.07ZM535.593,4295.02L552.895,4295.02L552.895,4295.02C582.779,4295.02 607.04,4270.76 607.04,4240.87C607.04,4210.99 582.779,4186.73 552.895,4186.73L461,4186.73L461,4146.43C461,4146.43 555.448,4146.47 555.578,4146.47L555.708,4146.47C606.535,4147.97 647.339,4189.69 647.339,4240.87C647.339,4264.04 638.984,4285.27 625.124,4301.7C668.213,4317.33 699.038,4358.65 699.038,4407.11C699.038,4468.44 649.686,4518.32 588.438,4519.2L588.424,4519.21L496.629,4519.21L484.39,4478.92L587.887,4478.91L587.887,4478.9C627.076,4478.4 658.739,4446.43 658.739,4407.11C658.739,4367.8 627.076,4335.83 588.003,4335.32L588.001,4335.32L523.352,4335.32L535.593,4295.02ZM407.615,4280.09L360,4124.71L295.491,4335.22L429.834,4335.22L429.834,4335.32L507.675,4335.32L519.916,4295.02L433.291,4295.02L433.291,4295.09L363.091,4295.09L363.091,4295.02L349.537,4295.02L360.052,4259.81L366.183,4280.09L407.615,4280.09Z"/>
            </g>
        </g>
    </g>
</svg>
